# xmcd
#
# Track frame offsets:
#	150
#	37853
#	73372
#	98215
#	114900
#	147750
#	171801
#
# Disc length: 2524 seconds
#
# Revision: 1
# Processed by: cddbd v1.5.1PL2 Copyright (c) Steve Scherf et al.
# Submitted via: EasyCDDAExtractor 9.0.0.1
#
DISCID=5909da07
DTITLE=Black Sabbath - Estadio Ramon Valero 14-09-83 Disc 2 Source 2 Remastere
DTITLE=d
DYEAR=1983
DGENRE=Hard Rock
TTITLE0=Iron Man
TTITLE1=The Dark - Zero The Hero
TTITLE2=Guitar Solo
TTITLE3=Digital Bitch
TTITLE4=Black Sabbath
TTITLE5=Smoke On The Water
TTITLE6=Paranoid
EXTD=
EXTT0=
EXTT1=
EXTT2=
EXTT3=
EXTT4=
EXTT5=
EXTT6=
PLAYORDER=
